<?xml version="1.0" encoding="UTF-8"?>
<!DOCTYPE svg PUBLIC "-//W3C//DTD SVG 1.1//EN" "http://www.w3.org/Graphics/SVG/1.1/DTD/svg11.dtd">
<!-- Creator: CorelDRAW Standard 2021 (64-Bit) -->
<svg xmlns="http://www.w3.org/2000/svg" xml:space="preserve" width="130px" height="30px" version="1.1" style="shape-rendering:geometricPrecision; text-rendering:geometricPrecision; image-rendering:optimizeQuality; fill-rule:evenodd; clip-rule:evenodd"
viewBox="0 0 130 30"
 xmlns:xlink="http://www.w3.org/1999/xlink"
 xmlns:xodm="http://www.corel.com/coreldraw/odm/2003">
 <defs>
  <style type="text/css">
   <![CDATA[
    .fil0 {fill:none}
    .fil1 {fill:#6B1D3D}
    .fil2 {fill:#6B1D3D;fill-rule:nonzero}
   ]]>
  </style>
 </defs>
 <g id="Слой_x0020_1">
  <metadata id="CorelCorpID_0Corel-Layer"/>
  <rect class="fil0" width="130.001" height="30"/>
  <g id="_2594945817136">
   <g>
    <g>
     <path class="fil1" d="M1.566 23.003l-0.313 0 0 -0.462 0.288 0c0.182,0 0.286,0.052 0.286,0.23 0,0.102 -0.026,0.232 -0.261,0.232zm0.313 0.102c0.209,-0.102 0.235,-0.232 0.235,-0.334 0,-0.382 -0.313,-0.434 -0.496,-0.434l-0.652 0 0 1.484 0.287 0 0 -0.616 0.209 0 0.051 0c0.288,0 0.288,0.128 0.288,0.258 0,0.255 0,0.28 0.052,0.358l0.288 0c-0.053,-0.103 -0.053,-0.128 -0.053,-0.358 0,-0.154 -0.026,-0.309 -0.209,-0.358l0 0zm-0.366 1.226c-0.677,0 -1.226,-0.562 -1.226,-1.253 0,-0.689 0.549,-1.253 1.226,-1.253 0.68,0 1.227,0.564 1.227,1.253 0,0.691 -0.547,1.253 -1.227,1.253l0 0zm0 -2.71c-0.834,0 -1.513,0.664 -1.513,1.457 0,0.819 0.679,1.483 1.513,1.483 0.836,0 1.514,-0.664 1.514,-1.483 0,-0.793 -0.678,-1.457 -1.514,-1.457z"/>
    </g>
    <g>
     <path class="fil1" d="M0.782 14.696c1.303,0.378 2.58,0.78 3.834,1.182l0 -0.166c-0.024,-0.236 -0.048,-0.472 -0.048,-0.708 0,-0.191 0,-0.355 0.024,-0.521 -1.254,-0.401 -2.507,-0.803 -3.81,-1.157l0 1.37zm3.81 -0.213l0.024 0.025c3.592,1.18 7.04,2.528 10.343,4.016 2.893,1.276 5.666,2.646 8.391,4.087l0 -1.394c-2.725,-1.441 -5.498,-2.812 -8.391,-4.088 -3.255,-1.464 -6.631,-2.787 -10.174,-3.967 -0.097,0.353 -0.146,0.731 -0.169,1.109 -0.024,0.071 -0.024,0.142 -0.024,0.212l0 0zm-3.81 -3.945l0 1.394c1.303,0.378 2.58,0.757 3.834,1.182 0.048,0.023 0.096,0.023 0.169,0.048 0.097,-0.426 0.217,-0.852 0.385,-1.253 -0.193,-0.049 -0.385,-0.119 -0.554,-0.19 -1.254,-0.402 -2.531,-0.803 -3.834,-1.181l0 0zm0 -2.764l0 1.394c1.303,0.354 2.58,0.755 3.834,1.181 0.386,0.118 0.771,0.26 1.157,0.378 0.24,-0.378 0.53,-0.756 0.82,-1.087 -0.651,-0.236 -1.326,-0.472 -1.977,-0.685 -1.254,-0.401 -2.531,-0.803 -3.834,-1.181l0 0zm8.969 14.955c1.591,0.828 3.423,1.323 5.208,1.583 1.158,0.165 2.315,0.236 3.399,0.236 0.387,0 0.844,-0.023 1.398,-0.094 0.555,-0.071 0.989,-0.118 1.327,-0.118 0.916,0 1.663,0.07 2.267,0.212l0 -0.567c-2.725,-1.44 -5.498,-2.811 -8.391,-4.087 -3.303,-1.464 -6.727,-2.811 -10.343,-4.016 0.337,3.189 2.435,5.481 5.135,6.851l0 0zm5.208 -6.969c2.893,1.276 5.666,2.645 8.391,4.086l0 -1.394c-2.725,-1.44 -5.498,-2.812 -8.391,-4.087 -2.941,-1.323 -6.003,-2.552 -9.186,-3.638 -0.242,0.378 -0.434,0.781 -0.603,1.182 3.4,1.157 6.654,2.433 9.789,3.851l0 0zm6.462 -3.922c0.53,0.141 1.278,0.401 1.929,0.851l0 -7.231c-0.941,0.403 -1.882,0.403 -2.556,0.403 -0.653,0 -1.423,-0.285 -3.762,-0.403 -0.173,-0.012 -0.349,-0.018 -0.528,-0.019l-0.064 0c-0.476,0.002 -0.973,0.04 -1.481,0.09 -1.905,0.236 -3.906,0.828 -5.161,1.631 -1.205,0.614 -2.337,1.512 -3.205,2.48 2.893,1.017 5.689,2.127 8.366,3.332 2.893,1.299 5.666,2.668 8.391,4.087l0 -1.419c-2.388,-1.321 -4.508,-2.456 -7.354,-3.661 0.579,-0.284 1.905,-0.471 2.916,-0.471 0.917,0 1.665,0.117 2.509,0.33z"/>
    </g>
   </g>
   <g>
    <g id="_2594945818144">
     <path class="fil1" d="M93.413 10.168l6.732 -2.692 0 -0.22c0,-0.388 -0.178,-1.036 -0.619,-1.254l7.13 0c-0.395,0.218 -0.619,0.866 -0.619,1.254l0 7.211c0,0.39 0.224,1.039 0.619,1.257l-7.13 0c0.441,-0.218 0.619,-0.867 0.619,-1.257l0 -3.429 -6.732 2.603 0 0.826c0,0.39 0.224,1.039 0.622,1.257l-7.133 0c0.399,-0.218 0.619,-0.867 0.619,-1.257l0 -7.211c0,-0.388 -0.22,-1.036 -0.619,-1.254l7.133 0c-0.398,0.218 -0.622,0.866 -0.622,1.254l0 2.912z"/>
     <path class="fil1" d="M79.193 6.002l-6.29 0 -6.554 8.982c-0.175,0.217 -0.533,0.478 -1.061,0.74l6.555 0c-0.133,-0.132 -0.178,-0.302 -0.178,-0.523 0,-0.126 0.089,-0.43 0.4,-0.866l2.7 -3.994 0.089 0 2.748 3.994c0.041,0.043 0.087,0.172 0.175,0.301 0.089,0.135 0.178,0.221 0.221,0.348 0.046,0.091 0.046,0.177 0.046,0.217 0,0.221 -0.089,0.391 -0.309,0.437l0 0.086 7.972 0c-0.355,-0.175 -0.576,-0.35 -0.754,-0.523 -0.22,-0.217 -0.398,-0.476 -0.665,-0.823l-5.181 -6.988c-0.177,-0.258 -0.267,-0.479 -0.267,-0.607 0,-0.176 -0.045,-0.652 0.353,-0.781z"/>
     <path class="fil1" d="M117.113 8.822l1.946 0 2.493 4.21 -6.546 0 2.107 -4.21zm10.659 4.21l-3.617 -5.423c-0.132,-0.219 -0.31,-0.436 -0.31,-0.565 0,-0.176 -0.178,-0.914 0.221,-1.042l-8.861 0 -4.191 7.03 -2.318 0 0 4.038c0.528,-0.219 1.728,-1.085 2.614,-1.085l16.166 0c0.889,0 1.995,0.866 2.525,1.085l0 -4.038 -2.229 0z"/>
     <path class="fil1" d="M59.396 12.122c-0.401,0.391 -0.888,0.652 -1.553,0.867 -0.619,0.218 -1.327,0.347 -2.078,0.347 -0.756,0 -1.464,-0.129 -2.083,-0.347 -0.667,-0.215 -1.152,-0.476 -1.55,-0.867 -0.356,-0.392 -0.531,-0.78 -0.531,-1.259 0,-0.479 0.175,-0.867 0.531,-1.257 0.398,-0.393 0.883,-0.652 1.55,-0.867 0.619,-0.221 1.327,-0.306 2.083,-0.306 0.751,0 1.459,0.085 2.078,0.306 0.665,0.215 1.152,0.474 1.553,0.867 0.353,0.39 0.574,0.778 0.574,1.257 0,0.479 -0.221,0.867 -0.574,1.259zm5.534 -3.342c-0.53,-0.652 -1.195,-1.258 -2.123,-1.737 -0.886,-0.522 -1.952,-0.912 -3.144,-1.171 -1.198,-0.304 -2.526,-0.433 -3.898,-0.433 -1.375,0 -2.659,0.129 -3.855,0.433 -1.24,0.259 -2.303,0.649 -3.192,1.171 -0.928,0.522 -1.636,1.085 -2.123,1.737 -0.487,0.648 -0.754,1.346 -0.754,2.083 0,0.952 0.444,1.865 1.33,2.691 0.882,0.867 2.08,1.521 3.588,1.995 1.504,0.522 3.189,0.74 5.006,0.74 1.416,0 2.7,-0.129 3.898,-0.436 1.192,-0.261 2.258,-0.652 3.186,-1.174 0.886,-0.516 1.594,-1.081 2.081,-1.73 0.49,-0.697 0.757,-1.392 0.757,-2.086 0,-0.737 -0.267,-1.435 -0.757,-2.083z"/>
     <path class="fil1" d="M43.626 12.08l0 4.209c-0.487,-0.043 -1.106,-0.089 -1.814,-0.089 -0.267,0 -0.623,0 -1.064,0.046 -0.489,0.043 -0.842,0.043 -1.152,0.043 -2.083,0 -3.943,-0.218 -5.625,-0.74 -1.728,-0.474 -3.058,-1.128 -4.032,-1.995 -1.018,-0.826 -1.507,-1.738 -1.507,-2.691 0,-0.737 0.314,-1.435 0.842,-2.083 0.576,-0.652 1.375,-1.214 2.393,-1.737 1.017,-0.522 2.169,-0.912 3.545,-1.171 1.373,-0.304 2.834,-0.433 4.384,-0.433 0.31,0 0.708,0 1.152,0.043 0.487,0.043 0.84,0.043 1.064,0.043 0.708,0 1.327,-0.043 1.814,-0.086l0 4.121c-0.531,-0.261 -1.153,-0.477 -1.86,-0.606 -0.708,-0.174 -1.462,-0.215 -2.215,-0.215 -0.84,0 -1.64,0.083 -2.347,0.301 -0.665,0.173 -1.241,0.434 -1.597,0.781 -0.395,0.347 -0.618,0.694 -0.618,1.085 0,0.347 0.223,0.697 0.575,1.039 0.399,0.35 0.932,0.568 1.64,0.783 0.707,0.175 1.461,0.261 2.347,0.261 0.799,0 1.55,-0.086 2.261,-0.215 0.708,-0.175 1.327,-0.394 1.814,-0.694z"/>
    </g>
    <path class="fil2" d="M58.386 18.725l0 5.832 1.604 0c1.236,0 2.221,-0.659 2.221,-1.737 0,-0.303 -0.197,-1.82 -1.713,-1.82l-0.852 0 0 -1.1 2.286 0 0 -1.175 -3.546 0zm1.269 3.424l0.764 0c0.738,0 0.71,1.297 0,1.297l-0.764 0 0 -1.297zm9.539 2.41l1.287 0 0.648 -1.376 1.985 0 0.648 1.376 1.287 0 -2.333 -5.834 -1.23 0 -2.292 5.834zm2.378 -2.513l0.546 -1.411 0.586 1.411 -1.132 0zm10.85 2.513l1.168 0 0 -2.401 2.01 0 0 2.401 1.168 0 0 -5.834 -1.168 0 0 2.254 -2.01 0 0 -2.254 -1.168 0 0 5.834zm12.547 0.002l1.301 0 0 -2.011 2.077 2.011 1.699 0 -3.162 -3.022 2.848 -2.751 -1.628 0 -1.834 1.874 0 -1.937 -1.301 0 0 5.836z"/>
   </g>
  </g>
 </g>
</svg>
